<svg width="24" height="24" viewBox="0 0 24 24" fill="none" xmlns="http://www.w3.org/2000/svg">
<path opacity="0.2" d="M22.6406 11.3738L14.2781 5.99256C14.1644 5.92007 14.0333 5.87957 13.8984 5.87537C13.7636 5.87115 13.6302 5.90337 13.5122 5.96863C13.3941 6.03389 13.2959 6.12976 13.2277 6.24617C13.1596 6.36257 13.1241 6.49519 13.125 6.63006V17.3738C13.1241 17.5087 13.1596 17.6413 13.2277 17.7577C13.2959 17.8741 13.3941 17.97 13.5122 18.0352C13.6302 18.1005 13.7636 18.1327 13.8984 18.1285C14.0333 18.1243 14.1644 18.0838 14.2781 18.0113L22.6406 12.6301C22.7472 12.5635 22.8351 12.4709 22.896 12.361C22.9569 12.2512 22.9889 12.1276 22.9889 12.0019C22.9889 11.8763 22.9569 11.7527 22.896 11.6428C22.8351 11.533 22.7472 11.4404 22.6406 11.3738ZM12.1406 11.3738L3.77814 5.99256C3.66441 5.92007 3.53324 5.87957 3.39842 5.87537C3.26362 5.87115 3.13016 5.90337 3.01213 5.96863C2.89409 6.03389 2.79584 6.12976 2.72771 6.24617C2.65958 6.36257 2.62411 6.49519 2.62502 6.63006V17.3738C2.62411 17.5087 2.65958 17.6413 2.72771 17.7577C2.79584 17.8741 2.89409 17.97 3.01213 18.0352C3.13016 18.1005 3.26362 18.1327 3.39842 18.1285C3.53324 18.1243 3.66441 18.0838 3.77814 18.0113L12.1406 12.6301C12.2472 12.5635 12.3351 12.4709 12.396 12.361C12.4569 12.2512 12.4889 12.1276 12.4889 12.0019C12.4889 11.8763 12.4569 11.7527 12.396 11.6428C12.3351 11.533 12.2472 11.4404 12.1406 11.3738Z" fill="#FF8A2E"/>
<path d="M22.6406 11.3738L14.2781 5.99256C14.1644 5.92007 14.0333 5.87957 13.8984 5.87537C13.7636 5.87115 13.6302 5.90337 13.5122 5.96863C13.3941 6.03389 13.2959 6.12976 13.2277 6.24617C13.1596 6.36257 13.1241 6.49519 13.125 6.63006V17.3738C13.1241 17.5087 13.1596 17.6413 13.2277 17.7577C13.2959 17.8741 13.3941 17.97 13.5122 18.0352C13.6302 18.1005 13.7636 18.1327 13.8984 18.1285C14.0333 18.1243 14.1644 18.0838 14.2781 18.0113L22.6406 12.6301C22.7472 12.5635 22.8351 12.4709 22.896 12.361C22.9569 12.2512 22.9889 12.1276 22.9889 12.0019C22.9889 11.8763 22.9569 11.7527 22.896 11.6428C22.8351 11.533 22.7472 11.4404 22.6406 11.3738ZM12.1406 11.3738L3.77814 5.99256C3.66441 5.92007 3.53324 5.87957 3.39842 5.87537C3.26362 5.87115 3.13016 5.90337 3.01213 5.96863C2.89409 6.03389 2.79584 6.12976 2.72771 6.24617C2.65958 6.36257 2.62411 6.49519 2.62502 6.63006V17.3738C2.62411 17.5087 2.65958 17.6413 2.72771 17.7577C2.79584 17.8741 2.89409 17.97 3.01213 18.0352C3.13016 18.1005 3.26362 18.1327 3.39842 18.1285C3.53324 18.1243 3.66441 18.0838 3.77814 18.0113L12.1406 12.6301C12.2472 12.5635 12.3351 12.4709 12.396 12.361C12.4569 12.2512 12.4889 12.1276 12.4889 12.0019C12.4889 11.8763 12.4569 11.7527 12.396 11.6428C12.3351 11.533 12.2472 11.4404 12.1406 11.3738Z" stroke="#FF8A2E" stroke-width="2" stroke-linecap="round" stroke-linejoin="round"/>
</svg>
