<svg width="24" height="24" viewBox="0 0 24 24" fill="none" xmlns="http://www.w3.org/2000/svg">
<path d="M21.7781 10.7163L8.27812 2.4757C8.05327 2.3332 7.79355 2.25521 7.52737 2.25025C7.26121 2.24529 6.99878 2.31355 6.76876 2.44758C6.53533 2.57565 6.34074 2.76426 6.20545 2.99358C6.07017 3.2229 5.9992 3.48445 6.00001 3.7507V20.2507C5.9992 20.5169 6.07017 20.7785 6.20545 21.0078C6.34074 21.2372 6.53533 21.4258 6.76876 21.5538C6.99878 21.6878 7.26121 21.7561 7.52737 21.7511C7.79355 21.7462 8.05327 21.6682 8.27812 21.5257L21.7781 13.2851C21.9994 13.1516 22.1824 12.9632 22.3095 12.7382C22.4366 12.5132 22.5033 12.2591 22.5033 12.0007C22.5033 11.7423 22.4366 11.4883 22.3095 11.2632C22.1824 11.0382 21.9994 10.8498 21.7781 10.7163Z" fill="#FF8A2E"/>
</svg>
