<svg width="24" height="24" viewBox="0 0 24 24" fill="none" xmlns="http://www.w3.org/2000/svg">
<g opacity="0.3">
<path d="M2.25032 12.0015C2.2528 10.2121 2.96475 8.49658 4.23008 7.23125C5.49542 5.96592 7.21087 5.25397 9.00031 5.25149H18.0003V3.75149C17.9999 3.60342 18.0432 3.45853 18.125 3.33507C18.2067 3.21161 18.3232 3.11511 18.4597 3.05774C18.5982 3.00371 18.7493 2.99 18.8952 3.0182C19.0412 3.0464 19.1762 3.11537 19.2847 3.21711L21.5347 5.46711C21.6755 5.60931 21.7545 5.80136 21.7545 6.00149C21.7545 6.20162 21.6755 6.39367 21.5347 6.53586L19.2847 8.78585C19.1408 8.92348 18.9495 9.00065 18.7503 9.00148C18.6508 9.00103 18.5522 8.98198 18.4597 8.94523C18.3232 8.88785 18.2067 8.79133 18.125 8.66788C18.0432 8.54443 17.9999 8.39953 18.0003 8.25148V6.75149H9.00031C7.60793 6.75149 6.27257 7.30461 5.288 8.2892C4.30344 9.27373 3.75032 10.6091 3.75032 12.0015C3.75032 12.2004 3.6713 12.3912 3.53065 12.5318C3.38999 12.6725 3.19923 12.7515 3.00032 12.7515C2.8014 12.7515 2.61064 12.6725 2.46998 12.5318C2.32934 12.3912 2.25032 12.2004 2.25032 12.0015ZM21.0003 11.2515C20.8014 11.2515 20.6106 11.3305 20.47 11.4712C20.3294 11.6118 20.2503 11.8026 20.2503 12.0015C20.2503 13.3939 19.6972 14.7292 18.7127 15.7138C17.7281 16.6984 16.3927 17.2515 15.0003 17.2515H6.00032V15.7515C6.00078 15.6034 5.9574 15.4585 5.87565 15.3351C5.79391 15.2116 5.67744 15.1151 5.54094 15.0577C5.40241 15.0037 5.25141 14.99 5.10541 15.0182C4.95941 15.0464 4.82438 15.1154 4.71594 15.2171L2.46594 17.4671C2.32511 17.6093 2.24609 17.8014 2.24609 18.0015C2.24609 18.2017 2.32511 18.3937 2.46594 18.5359L4.71594 20.7859C4.85991 20.9235 5.05116 21.0007 5.25032 21.0015C5.34986 21.001 5.44843 20.982 5.54094 20.9452C5.67744 20.8879 5.79391 20.7913 5.87565 20.6679C5.9574 20.5444 6.00078 20.3995 6.00032 20.2515V18.7515H15.0003C16.7897 18.749 18.5052 18.037 19.7705 16.7717C21.0359 15.5064 21.7478 13.7909 21.7503 12.0015C21.7503 11.8026 21.6713 11.6118 21.5306 11.4712C21.39 11.3305 21.1992 11.2515 21.0003 11.2515Z" fill="white"/>
</g>
</svg>
