<svg width="24" height="24" viewBox="0 0 24 24" fill="none" xmlns="http://www.w3.org/2000/svg">
<path opacity="0.2" d="M1.35896 11.3738L9.72144 5.99256C9.83521 5.92007 9.96639 5.87957 10.1012 5.87537C10.236 5.87115 10.3694 5.90337 10.4875 5.96863C10.6055 6.03389 10.7038 6.12976 10.7719 6.24617C10.84 6.36257 10.8755 6.49519 10.8746 6.63006V17.3738C10.8755 17.5087 10.84 17.6413 10.7719 17.7577C10.7038 17.8741 10.6055 17.97 10.4875 18.0352C10.3694 18.1005 10.236 18.1327 10.1012 18.1285C9.96639 18.1243 9.83521 18.0838 9.72144 18.0113L1.35896 12.6301C1.25241 12.5635 1.16454 12.4709 1.10362 12.361C1.04271 12.2512 1.01074 12.1276 1.01074 12.0019C1.01074 11.8763 1.04271 11.7527 1.10362 11.6428C1.16454 11.533 1.25241 11.4404 1.35896 11.3738ZM11.8589 11.3738L20.2214 5.99256C20.3352 5.92007 20.4664 5.87957 20.6012 5.87537C20.736 5.87115 20.8694 5.90337 20.9875 5.96863C21.1055 6.03389 21.2038 6.12976 21.2719 6.24617C21.34 6.36257 21.3755 6.49519 21.3746 6.63006V17.3738C21.3755 17.5087 21.34 17.6413 21.2719 17.7577C21.2038 17.8741 21.1055 17.97 20.9875 18.0352C20.8694 18.1005 20.736 18.1327 20.6012 18.1285C20.4664 18.1243 20.3352 18.0838 20.2214 18.0113L11.8589 12.6301C11.7524 12.5635 11.6645 12.4709 11.6036 12.361C11.5427 12.2512 11.5107 12.1276 11.5107 12.0019C11.5107 11.8763 11.5427 11.7527 11.6036 11.6428C11.6645 11.533 11.7524 11.4404 11.8589 11.3738Z" fill="#FF8A2E"/>
<path d="M1.35896 11.3738L9.72144 5.99256C9.83521 5.92007 9.96639 5.87957 10.1012 5.87537C10.236 5.87115 10.3694 5.90337 10.4875 5.96863C10.6055 6.03389 10.7038 6.12976 10.7719 6.24617C10.84 6.36257 10.8755 6.49519 10.8746 6.63006V17.3738C10.8755 17.5087 10.84 17.6413 10.7719 17.7577C10.7038 17.8741 10.6055 17.97 10.4875 18.0352C10.3694 18.1005 10.236 18.1327 10.1012 18.1285C9.96639 18.1243 9.83521 18.0838 9.72144 18.0113L1.35896 12.6301C1.25241 12.5635 1.16454 12.4709 1.10362 12.361C1.04271 12.2512 1.01074 12.1276 1.01074 12.0019C1.01074 11.8763 1.04271 11.7527 1.10362 11.6428C1.16454 11.533 1.25241 11.4404 1.35896 11.3738ZM11.8589 11.3738L20.2214 5.99256C20.3352 5.92007 20.4664 5.87957 20.6012 5.87537C20.736 5.87115 20.8694 5.90337 20.9875 5.96863C21.1055 6.03389 21.2038 6.12976 21.2719 6.24617C21.34 6.36257 21.3755 6.49519 21.3746 6.63006V17.3738C21.3755 17.5087 21.34 17.6413 21.2719 17.7577C21.2038 17.8741 21.1055 17.97 20.9875 18.0352C20.8694 18.1005 20.736 18.1327 20.6012 18.1285C20.4664 18.1243 20.3352 18.0838 20.2214 18.0113L11.8589 12.6301C11.7524 12.5635 11.6645 12.4709 11.6036 12.361C11.5427 12.2512 11.5107 12.1276 11.5107 12.0019C11.5107 11.8763 11.5427 11.7527 11.6036 11.6428C11.6645 11.533 11.7524 11.4404 11.8589 11.3738Z" stroke="#FF8A2E" stroke-width="2" stroke-linecap="round" stroke-linejoin="round"/>
</svg>
