<svg width="24" height="24" viewBox="0 0 24 24" fill="none" xmlns="http://www.w3.org/2000/svg">
<g opacity="0.3">
<path d="M22.2844 16.7171C22.4252 16.8593 22.5042 17.0514 22.5042 17.2515C22.5042 17.4517 22.4252 17.6437 22.2844 17.7859L20.0344 20.0359C19.8904 20.1735 19.6991 20.2507 19.5 20.2515C19.4005 20.251 19.3018 20.232 19.2094 20.1952C19.0729 20.1379 18.9564 20.0413 18.8747 19.9179C18.7929 19.7944 18.7495 19.6495 18.75 19.5015V18.0015C17.6896 17.9863 16.6475 17.7222 15.7079 17.2304C14.7683 16.7386 13.9574 16.033 13.3406 15.1702L9.43125 9.7046C8.94615 9.02518 8.30625 8.471 7.5645 8.0879C6.82274 7.7048 6.00046 7.5038 5.16562 7.50148H3C2.80108 7.50148 2.61032 7.42247 2.46967 7.28182C2.32902 7.14116 2.25 6.9504 2.25 6.75149C2.25 6.55258 2.32902 6.36181 2.46967 6.22116C2.61032 6.08051 2.80108 6.00149 3 6.00149H5.16562C6.24035 6.00338 7.29918 6.26115 8.2545 6.75349C9.20985 7.24583 10.0342 7.95853 10.6594 8.83273L14.5687 14.2984C15.0445 14.9674 15.6707 15.5154 16.3969 15.898C17.1232 16.2807 17.9292 16.4874 18.75 16.5015V15.0015C18.7495 14.8534 18.7929 14.7085 18.8747 14.5851C18.9564 14.4616 19.0729 14.3651 19.2094 14.3077C19.3479 14.2537 19.4989 14.24 19.6449 14.2682C19.7909 14.2964 19.9259 14.3654 20.0344 14.4671L22.2844 16.7171ZM13.4062 10.0327C13.4867 10.0904 13.5779 10.1315 13.6744 10.1538C13.7708 10.1761 13.8707 10.179 13.9684 10.1624C14.066 10.1458 14.1593 10.1101 14.2431 10.0573C14.3268 10.0045 14.3993 9.9356 14.4562 9.8546L14.5687 9.7046C15.0445 9.03553 15.6707 8.48765 16.3969 8.10493C17.1232 7.72228 17.9292 7.51558 18.75 7.50148V9.00148C18.7495 9.14953 18.7929 9.29443 18.8747 9.41788C18.9564 9.54133 19.0729 9.63785 19.2094 9.69523C19.3018 9.73198 19.4005 9.75103 19.5 9.75148C19.6991 9.75065 19.8904 9.67348 20.0344 9.53585L22.2844 7.28586C22.4252 7.14367 22.5042 6.95162 22.5042 6.75149C22.5042 6.55136 22.4252 6.35931 22.2844 6.21711L20.0344 3.96711C19.9259 3.86537 19.7909 3.7964 19.6449 3.7682C19.4989 3.74 19.3479 3.75371 19.2094 3.80774C19.0729 3.86511 18.9564 3.96161 18.8747 4.08507C18.7929 4.20853 18.7495 4.35342 18.75 4.50149V6.00149C17.6896 6.01665 16.6475 6.28077 15.7079 6.77256C14.7683 7.26434 13.9574 7.97 13.3406 8.83273L13.2375 8.98273C13.1794 9.06268 13.1376 9.15328 13.1147 9.24943C13.0917 9.3455 13.088 9.44525 13.1036 9.54283C13.1193 9.6404 13.1541 9.73393 13.206 9.818C13.258 9.90208 13.326 9.97505 13.4062 10.0327ZM10.5938 13.9702C10.5133 13.9126 10.4221 13.8715 10.3256 13.8492C10.2292 13.827 10.1293 13.8241 10.0316 13.8406C9.93405 13.8571 9.84067 13.8928 9.7569 13.9457C9.6732 13.9985 9.60075 14.0674 9.54375 14.1484L9.43125 14.2984C8.94615 14.9778 8.30625 15.532 7.5645 15.9151C6.82274 16.2982 6.00046 16.4992 5.16562 16.5015H3C2.80108 16.5015 2.61032 16.5805 2.46967 16.7212C2.32902 16.8618 2.25 17.0526 2.25 17.2515C2.25 17.4504 2.32902 17.6412 2.46967 17.7818C2.61032 17.9225 2.80108 18.0015 3 18.0015H5.16562C6.24035 17.9996 7.29918 17.7418 8.2545 17.2495C9.20985 16.7572 10.0342 16.0444 10.6594 15.1702L10.7625 15.0202C10.8206 14.9403 10.8624 14.8497 10.8853 14.7535C10.9083 14.6575 10.912 14.5577 10.8964 14.4601C10.8807 14.3626 10.8459 14.2691 10.794 14.185C10.742 14.1009 10.674 14.0279 10.5938 13.9702Z" fill="white"/>
</g>
</svg>
