<svg width="24" height="24" viewBox="0 0 24 24" fill="none" xmlns="http://www.w3.org/2000/svg">
<path opacity="0.2" d="M7.5 15.75H3C2.80108 15.75 2.61032 15.6709 2.46967 15.5303C2.32902 15.3897 2.25 15.1989 2.25 15V9C2.25 8.8011 2.32902 8.6103 2.46967 8.46968C2.61032 8.32905 2.80108 8.25 3 8.25H7.5V15.75Z" fill="#FF8A2E"/>
<path d="M20.5219 7.22813C21.1495 7.85423 21.6474 8.598 21.9871 9.41685C22.3269 10.2357 22.5017 11.1135 22.5017 12C22.5017 12.8865 22.3269 13.7643 21.9871 14.5832C21.6474 15.402 21.1495 16.1458 20.5219 16.7719M7.5 8.25V15.75M17.8687 9.88125C18.1476 10.1591 18.3689 10.4893 18.52 10.8529C18.6709 11.2165 18.7487 11.6063 18.7487 12C18.7487 12.3937 18.6709 12.7835 18.52 13.1471C18.3689 13.5107 18.1476 13.8409 17.8687 14.1188M7.5 15.75H3C2.80108 15.75 2.61032 15.6709 2.46967 15.5303C2.32902 15.3897 2.25 15.1989 2.25 15V9C2.25 8.8011 2.32902 8.6103 2.46967 8.46968C2.61032 8.32905 2.80108 8.25 3 8.25H7.5L14.25 3V21L7.5 15.75Z" stroke="#FF8A2E" stroke-width="2" stroke-linecap="round" stroke-linejoin="round"/>
</svg>
