<svg width="24" height="25" viewBox="0 0 24 25" fill="none" xmlns="http://www.w3.org/2000/svg">
<path d="M14.25 19.999V15.499C14.25 15.3001 14.1709 15.1093 14.0303 14.9686C13.8897 14.828 13.6989 14.749 13.5 14.749H10.5C10.3011 14.749 10.1103 14.828 9.96968 14.9686C9.82905 15.1093 9.75 15.3001 9.75 15.499V19.999C9.75 20.1979 9.67095 20.3887 9.53032 20.5293C9.3897 20.67 9.1989 20.749 9 20.749H4.5C4.30109 20.749 4.11032 20.67 3.96967 20.5293C3.82902 20.3887 3.75 20.1979 3.75 19.999V11.3271C3.75168 11.2233 3.77411 11.1209 3.81597 11.0259C3.85783 10.9309 3.91828 10.8453 3.99375 10.774L11.4937 3.95835C11.632 3.83187 11.8126 3.76172 12 3.76172C12.1874 3.76172 12.368 3.83187 12.5062 3.95835L20.0062 10.774C20.0817 10.8453 20.1422 10.9309 20.184 11.0259C20.2259 11.1209 20.2484 11.2233 20.25 11.3271V19.999C20.25 20.1979 20.1709 20.3887 20.0303 20.5293C19.8897 20.67 19.6989 20.749 19.5 20.749H15C14.8011 20.749 14.6103 20.67 14.4697 20.5293C14.3291 20.3887 14.25 20.1979 14.25 19.999Z" stroke="#FF8A2E" stroke-width="2" stroke-linecap="round" stroke-linejoin="round"/>
</svg>
