<svg width="32" height="32" viewBox="0 0 32 32" fill="none" xmlns="http://www.w3.org/2000/svg">
<rect width="32" height="32" rx="8" fill="#0A0A0A"/>
<path d="M22.75 7V11.5M25 9.25H20.5M11.5 23.125V10L16.0187 8.875M17.875 12.9062L11.5 14.5M23.5 15.9344V20.125M20.875 22.75C22.3247 22.75 23.5 21.5747 23.5 20.125C23.5 18.6753 22.3247 17.5 20.875 17.5C19.4253 17.5 18.25 18.6753 18.25 20.125C18.25 21.5747 19.4253 22.75 20.875 22.75ZM8.875 25.75C10.3247 25.75 11.5 24.5747 11.5 23.125C11.5 21.6753 10.3247 20.5 8.875 20.5C7.42525 20.5 6.25 21.6753 6.25 23.125C6.25 24.5747 7.42525 25.75 8.875 25.75Z" stroke="#FF8A2E" stroke-width="3" stroke-linecap="round" stroke-linejoin="round"/>
</svg>
